<svg width="59" height="19" viewBox="0 0 59 19" fill="none" xmlns="http://www.w3.org/2000/svg">
<path d="M16.34 9.324C16.34 10.596 16.128 11.764 15.704 12.828C15.28 13.892 14.684 14.808 13.916 15.576C13.148 16.344 12.224 16.94 11.144 17.364C10.064 17.788 8.864 18 7.544 18H0.932V0.647999H7.544C8.864 0.647999 10.064 0.863999 11.144 1.296C12.224 1.72 13.148 2.316 13.916 3.084C14.684 3.844 15.28 4.756 15.704 5.82C16.128 6.884 16.34 8.052 16.34 9.324ZM13.028 9.324C13.028 8.372 12.9 7.52 12.644 6.768C12.396 6.008 12.032 5.368 11.552 4.848C11.08 4.32 10.504 3.916 9.824 3.636C9.152 3.356 8.392 3.216 7.544 3.216H4.172V15.432H7.544C8.392 15.432 9.152 15.292 9.824 15.012C10.504 14.732 11.08 14.332 11.552 13.812C12.032 13.284 12.396 12.644 12.644 11.892C12.9 11.132 13.028 10.276 13.028 9.324ZM26.1205 10.428C26.1205 10.044 26.0645 9.684 25.9525 9.348C25.8485 9.004 25.6885 8.704 25.4725 8.448C25.2565 8.192 24.9805 7.992 24.6445 7.848C24.3165 7.696 23.9325 7.62 23.4925 7.62C22.6365 7.62 21.9605 7.864 21.4645 8.352C20.9765 8.84 20.6645 9.532 20.5285 10.428H26.1205ZM20.4685 12.216C20.5165 12.848 20.6285 13.396 20.8045 13.86C20.9805 14.316 21.2125 14.696 21.5005 15C21.7885 15.296 22.1285 15.52 22.5205 15.672C22.9205 15.816 23.3605 15.888 23.8405 15.888C24.3205 15.888 24.7325 15.832 25.0765 15.72C25.4285 15.608 25.7325 15.484 25.9885 15.348C26.2525 15.212 26.4805 15.088 26.6725 14.976C26.8725 14.864 27.0645 14.808 27.2485 14.808C27.4965 14.808 27.6805 14.9 27.8005 15.084L28.6525 16.164C28.3245 16.548 27.9565 16.872 27.5485 17.136C27.1405 17.392 26.7125 17.6 26.2645 17.76C25.8245 17.912 25.3725 18.02 24.9085 18.084C24.4525 18.148 24.0085 18.18 23.5765 18.18C22.7205 18.18 21.9245 18.04 21.1885 17.76C20.4525 17.472 19.8125 17.052 19.2685 16.5C18.7245 15.94 18.2965 15.252 17.9845 14.436C17.6725 13.612 17.5165 12.66 17.5165 11.58C17.5165 10.74 17.6525 9.952 17.9245 9.216C18.1965 8.472 18.5845 7.828 19.0885 7.284C19.6005 6.732 20.2205 6.296 20.9485 5.976C21.6845 5.656 22.5125 5.496 23.4325 5.496C24.2085 5.496 24.9245 5.62 25.5805 5.868C26.2365 6.116 26.8005 6.48 27.2725 6.96C27.7445 7.432 28.1125 8.016 28.3765 8.712C28.6485 9.4 28.7845 10.188 28.7845 11.076C28.7845 11.524 28.7365 11.828 28.6405 11.988C28.5445 12.14 28.3605 12.216 28.0885 12.216H20.4685ZM39.4596 8.292C39.3716 8.404 39.2836 8.492 39.1956 8.556C39.1156 8.62 38.9956 8.652 38.8356 8.652C38.6836 8.652 38.5356 8.608 38.3916 8.52C38.2476 8.424 38.0756 8.32 37.8756 8.208C37.6756 8.088 37.4356 7.984 37.1556 7.896C36.8836 7.8 36.5436 7.752 36.1356 7.752C35.6156 7.752 35.1596 7.848 34.7676 8.04C34.3756 8.224 34.0476 8.492 33.7836 8.844C33.5276 9.196 33.3356 9.624 33.2076 10.128C33.0796 10.624 33.0156 11.188 33.0156 11.82C33.0156 12.476 33.0836 13.06 33.2196 13.572C33.3636 14.084 33.5676 14.516 33.8316 14.868C34.0956 15.212 34.4156 15.476 34.7916 15.66C35.1676 15.836 35.5916 15.924 36.0636 15.924C36.5356 15.924 36.9156 15.868 37.2036 15.756C37.4996 15.636 37.7476 15.508 37.9476 15.372C38.1476 15.228 38.3196 15.1 38.4636 14.988C38.6156 14.868 38.7836 14.808 38.9676 14.808C39.2076 14.808 39.3876 14.9 39.5076 15.084L40.3596 16.164C40.0316 16.548 39.6756 16.872 39.2916 17.136C38.9076 17.392 38.5076 17.6 38.0916 17.76C37.6836 17.912 37.2596 18.02 36.8196 18.084C36.3876 18.148 35.9556 18.18 35.5236 18.18C34.7636 18.18 34.0476 18.04 33.3756 17.76C32.7036 17.472 32.1156 17.056 31.6116 16.512C31.1076 15.968 30.7076 15.304 30.4116 14.52C30.1236 13.728 29.9796 12.828 29.9796 11.82C29.9796 10.916 30.1076 10.08 30.3636 9.312C30.6276 8.536 31.0116 7.868 31.5156 7.308C32.0196 6.74 32.6436 6.296 33.3876 5.976C34.1316 5.656 34.9876 5.496 35.9556 5.496C36.8756 5.496 37.6796 5.644 38.3676 5.94C39.0636 6.236 39.6876 6.66 40.2396 7.212L39.4596 8.292ZM44.8125 0.167999V10.38H45.3645C45.5645 10.38 45.7205 10.356 45.8325 10.308C45.9525 10.252 46.0725 10.144 46.1925 9.984L49.2525 6.204C49.3805 6.036 49.5205 5.908 49.6725 5.82C49.8325 5.732 50.0365 5.688 50.2845 5.688H52.9965L49.1685 10.26C48.8965 10.62 48.6005 10.896 48.2805 11.088C48.4485 11.208 48.5965 11.348 48.7245 11.508C48.8605 11.668 48.9885 11.84 49.1085 12.024L53.2125 18H50.5365C50.3045 18 50.1045 17.964 49.9365 17.892C49.7685 17.812 49.6285 17.672 49.5165 17.472L46.3725 12.804C46.2605 12.62 46.1445 12.5 46.0245 12.444C45.9045 12.388 45.7245 12.36 45.4845 12.36H44.8125V18H41.8485V0.167999H44.8125Z" fill="#1D1F24"/>
<rect x="55" y="14" width="4" height="4" fill="#FF565C"/>
</svg>
